<mxfile host="app.diagrams.net" modified="2020-10-15T11:39:42.129Z" agent="5.0 (Windows NT 10.0; WOW64) AppleWebKit/537.36 (KHTML, like Gecko) Chrome/78.0.3904.108 Safari/537.36" etag="K9-wVT2EZmIx8KFf42EX" version="13.8.0" type="github">
  <diagram id="PIqpq7g2yBhrVfeTVyQ7" name="第 1 页">
    <mxGraphModel dx="1822" dy="1141" grid="0" gridSize="10" guides="1" tooltips="1" connect="1" arrows="1" fold="1" page="0" pageScale="1" pageWidth="827" pageHeight="1169" background="none" math="0" shadow="0">
      <root>
        <mxCell id="0" />
        <mxCell id="1" parent="0" />
        <mxCell id="DmI60GA0uWcOQrbNNr-2-2" value="销售跟进订单" style="text;html=1;align=center;verticalAlign=middle;resizable=0;points=[];autosize=1;fontColor=#1D3557;" parent="1" vertex="1">
          <mxGeometry x="109" y="-362" width="82" height="18" as="geometry" />
        </mxCell>
        <mxCell id="PYMbP-hpmB8G9cI8jIo8-4" value="" style="edgeStyle=orthogonalEdgeStyle;curved=0;rounded=1;sketch=0;orthogonalLoop=1;jettySize=auto;html=1;strokeColor=#457B9D;fillColor=#A8DADC;fontColor=#1D3557;entryX=0.5;entryY=0;entryDx=0;entryDy=0;" parent="1" source="PYMbP-hpmB8G9cI8jIo8-2" target="PYMbP-hpmB8G9cI8jIo8-1" edge="1">
          <mxGeometry relative="1" as="geometry" />
        </mxCell>
        <mxCell id="DmI60GA0uWcOQrbNNr-2-10" value="" style="html=1;points=[];perimeter=orthogonalPerimeter;rounded=0;sketch=0;fillColor=#A8DADC;strokeColor=#457B9D;fontColor=#1D3557;" parent="1" vertex="1">
          <mxGeometry x="149" y="-260" width="10" height="60" as="geometry" />
        </mxCell>
        <mxCell id="DmI60GA0uWcOQrbNNr-2-11" value="销售填写客户信息进行绑定客户" style="html=1;verticalAlign=bottom;endArrow=block;strokeColor=#457B9D;fontColor=#1D3557;labelBackgroundColor=#F1FAEE;exitX=1;exitY=0;exitDx=0;exitDy=0;" parent="1" source="DmI60GA0uWcOQrbNNr-2-10" edge="1">
          <mxGeometry relative="1" as="geometry">
            <mxPoint x="358" y="-260" as="targetPoint" />
          </mxGeometry>
        </mxCell>
        <mxCell id="DmI60GA0uWcOQrbNNr-2-12" value="返回客户公司信息，订单关联客户id" style="html=1;verticalAlign=bottom;endArrow=open;dashed=1;endSize=8;strokeColor=#457B9D;fontColor=#1D3557;labelBackgroundColor=#F1FAEE;entryX=1;entryY=0.95;entryDx=0;entryDy=0;" parent="1" target="DmI60GA0uWcOQrbNNr-2-10" edge="1">
          <mxGeometry relative="1" as="geometry">
            <mxPoint x="356" y="-203" as="sourcePoint" />
          </mxGeometry>
        </mxCell>
        <mxCell id="DmI60GA0uWcOQrbNNr-2-13" value="" style="html=1;points=[];perimeter=orthogonalPerimeter;rounded=0;sketch=0;fillColor=#A8DADC;strokeColor=#457B9D;fontColor=#1D3557;" parent="1" vertex="1">
          <mxGeometry x="365" y="-266" width="10" height="80" as="geometry" />
        </mxCell>
        <mxCell id="DmI60GA0uWcOQrbNNr-2-14" value="绑定客户" style="text;html=1;align=center;verticalAlign=middle;resizable=0;points=[];autosize=1;fontColor=#1D3557;" parent="1" vertex="1">
          <mxGeometry x="90" y="-236" width="58" height="18" as="geometry" />
        </mxCell>
        <mxCell id="DmI60GA0uWcOQrbNNr-2-15" value="客户服务" style="text;html=1;align=center;verticalAlign=middle;resizable=0;points=[];autosize=1;fontColor=#1D3557;" parent="1" vertex="1">
          <mxGeometry x="373" y="-240" width="58" height="18" as="geometry" />
        </mxCell>
        <mxCell id="DmI60GA0uWcOQrbNNr-2-17" value="" style="html=1;points=[];perimeter=orthogonalPerimeter;rounded=0;sketch=0;fillColor=#A8DADC;strokeColor=#457B9D;fontColor=#1D3557;" parent="1" vertex="1">
          <mxGeometry x="250" y="-145" width="10" height="75" as="geometry" />
        </mxCell>
        <mxCell id="DmI60GA0uWcOQrbNNr-2-18" value="根据订单区域获取商品列表" style="html=1;verticalAlign=bottom;endArrow=block;strokeColor=#457B9D;fontColor=#1D3557;labelBackgroundColor=#F1FAEE;exitX=1;exitY=0;exitDx=0;exitDy=0;" parent="1" source="DmI60GA0uWcOQrbNNr-2-17" edge="1">
          <mxGeometry relative="1" as="geometry">
            <mxPoint x="456" y="-145" as="targetPoint" />
          </mxGeometry>
        </mxCell>
        <mxCell id="DmI60GA0uWcOQrbNNr-2-19" value="返回符合条件的商品列表" style="html=1;verticalAlign=bottom;endArrow=open;dashed=1;endSize=8;strokeColor=#457B9D;fontColor=#1D3557;labelBackgroundColor=#F1FAEE;entryX=1;entryY=0.95;entryDx=0;entryDy=0;" parent="1" target="DmI60GA0uWcOQrbNNr-2-17" edge="1">
          <mxGeometry relative="1" as="geometry">
            <mxPoint x="457" y="-74" as="sourcePoint" />
          </mxGeometry>
        </mxCell>
        <mxCell id="DmI60GA0uWcOQrbNNr-2-20" value="" style="html=1;points=[];perimeter=orthogonalPerimeter;rounded=0;sketch=0;fillColor=#A8DADC;strokeColor=#457B9D;fontColor=#1D3557;" parent="1" vertex="1">
          <mxGeometry x="462" y="-145" width="10" height="85" as="geometry" />
        </mxCell>
        <mxCell id="DmI60GA0uWcOQrbNNr-2-21" value="编辑商品" style="text;html=1;align=center;verticalAlign=middle;resizable=0;points=[];autosize=1;fontColor=#1D3557;" parent="1" vertex="1">
          <mxGeometry x="87" y="-129" width="58" height="18" as="geometry" />
        </mxCell>
        <mxCell id="DmI60GA0uWcOQrbNNr-2-22" value="商品中心" style="text;html=1;align=center;verticalAlign=middle;resizable=0;points=[];autosize=1;fontColor=#1D3557;" parent="1" vertex="1">
          <mxGeometry x="466" y="-125" width="58" height="18" as="geometry" />
        </mxCell>
        <mxCell id="DmI60GA0uWcOQrbNNr-2-23" value="" style="html=1;points=[];perimeter=orthogonalPerimeter;rounded=0;sketch=0;fillColor=#A8DADC;strokeColor=#457B9D;fontColor=#1D3557;" parent="1" vertex="1">
          <mxGeometry x="149" y="-23" width="10" height="60" as="geometry" />
        </mxCell>
        <mxCell id="DmI60GA0uWcOQrbNNr-2-24" value="根据子订单提炼商机" style="html=1;verticalAlign=bottom;endArrow=block;strokeColor=#457B9D;fontColor=#1D3557;labelBackgroundColor=#F1FAEE;exitX=1;exitY=0;exitDx=0;exitDy=0;" parent="1" source="DmI60GA0uWcOQrbNNr-2-23" edge="1">
          <mxGeometry relative="1" as="geometry">
            <mxPoint x="351" y="-23" as="targetPoint" />
          </mxGeometry>
        </mxCell>
        <mxCell id="DmI60GA0uWcOQrbNNr-2-25" value="返回商机详情" style="html=1;verticalAlign=bottom;endArrow=open;dashed=1;endSize=8;strokeColor=#457B9D;fontColor=#1D3557;labelBackgroundColor=#F1FAEE;entryX=1;entryY=0.95;entryDx=0;entryDy=0;" parent="1" target="DmI60GA0uWcOQrbNNr-2-23" edge="1">
          <mxGeometry relative="1" as="geometry">
            <mxPoint x="352" y="34" as="sourcePoint" />
          </mxGeometry>
        </mxCell>
        <mxCell id="DmI60GA0uWcOQrbNNr-2-26" value="" style="html=1;points=[];perimeter=orthogonalPerimeter;rounded=0;sketch=0;fillColor=#bac8d3;strokeColor=#23445d;" parent="1" vertex="1">
          <mxGeometry x="365" y="-29" width="10" height="80" as="geometry" />
        </mxCell>
        <mxCell id="DmI60GA0uWcOQrbNNr-2-27" value="提炼线索" style="text;html=1;align=center;verticalAlign=middle;resizable=0;points=[];autosize=1;fontColor=#1D3557;" parent="1" vertex="1">
          <mxGeometry x="90" y="1" width="58" height="18" as="geometry" />
        </mxCell>
        <mxCell id="DmI60GA0uWcOQrbNNr-2-28" value="线索服务" style="text;html=1;align=center;verticalAlign=middle;resizable=0;points=[];autosize=1;fontColor=#1D3557;" parent="1" vertex="1">
          <mxGeometry x="381" y="-6" width="58" height="18" as="geometry" />
        </mxCell>
        <mxCell id="DmI60GA0uWcOQrbNNr-2-29" value="" style="html=1;points=[];perimeter=orthogonalPerimeter;rounded=0;sketch=0;fillColor=#A8DADC;strokeColor=#457B9D;fontColor=#1D3557;" parent="1" vertex="1">
          <mxGeometry x="149" y="67" width="10" height="60" as="geometry" />
        </mxCell>
        <mxCell id="DmI60GA0uWcOQrbNNr-2-30" value="通过客户id查询客户信息" style="html=1;verticalAlign=bottom;endArrow=block;strokeColor=#457B9D;fontColor=#1D3557;labelBackgroundColor=#F1FAEE;exitX=1;exitY=0;exitDx=0;exitDy=0;" parent="1" source="DmI60GA0uWcOQrbNNr-2-29" edge="1">
          <mxGeometry relative="1" as="geometry">
            <mxPoint x="356" y="67" as="targetPoint" />
          </mxGeometry>
        </mxCell>
        <mxCell id="DmI60GA0uWcOQrbNNr-2-31" value="返回合同信息" style="html=1;verticalAlign=bottom;endArrow=open;dashed=1;endSize=8;strokeColor=#457B9D;fontColor=#1D3557;labelBackgroundColor=#F1FAEE;entryX=1;entryY=0.95;entryDx=0;entryDy=0;" parent="1" target="DmI60GA0uWcOQrbNNr-2-29" edge="1">
          <mxGeometry relative="1" as="geometry">
            <mxPoint x="353" y="124" as="sourcePoint" />
          </mxGeometry>
        </mxCell>
        <mxCell id="DmI60GA0uWcOQrbNNr-2-32" value="" style="html=1;points=[];perimeter=orthogonalPerimeter;rounded=0;sketch=0;fillColor=#A8DADC;strokeColor=#457B9D;fontColor=#1D3557;" parent="1" vertex="1">
          <mxGeometry x="365" y="61" width="10" height="80" as="geometry" />
        </mxCell>
        <mxCell id="DmI60GA0uWcOQrbNNr-2-33" value="创建合同" style="text;html=1;align=center;verticalAlign=middle;resizable=0;points=[];autosize=1;fontColor=#1D3557;" parent="1" vertex="1">
          <mxGeometry x="90" y="91" width="58" height="18" as="geometry" />
        </mxCell>
        <mxCell id="DmI60GA0uWcOQrbNNr-2-34" value="客户服务" style="text;html=1;align=center;verticalAlign=middle;resizable=0;points=[];autosize=1;fontColor=#1D3557;" parent="1" vertex="1">
          <mxGeometry x="369" y="84" width="58" height="18" as="geometry" />
        </mxCell>
        <mxCell id="PYMbP-hpmB8G9cI8jIo8-1" value="" style="ellipse;html=1;shape=endState;fillColor=#000000;strokeColor=#ff0000;rounded=0;sketch=0;fontColor=#1D3557;" parent="1" vertex="1">
          <mxGeometry x="139" y="177" width="30" height="30" as="geometry" />
        </mxCell>
        <mxCell id="PYMbP-hpmB8G9cI8jIo8-2" value="" style="ellipse;html=1;shape=startState;fillColor=#000000;strokeColor=#ff0000;rounded=0;sketch=0;fontColor=#1D3557;" parent="1" vertex="1">
          <mxGeometry x="139" y="-340" width="30" height="30" as="geometry" />
        </mxCell>
        <mxCell id="SoGWiR2uLx1Ju7XlsU4c-3" value="" style="rounded=0;whiteSpace=wrap;html=1;" vertex="1" parent="1">
          <mxGeometry x="-220" y="-192" width="120" height="60" as="geometry" />
        </mxCell>
        <mxCell id="SoGWiR2uLx1Ju7XlsU4c-4" value="" style="endArrow=classic;html=1;dashed=1;" edge="1" parent="1">
          <mxGeometry width="50" height="50" relative="1" as="geometry">
            <mxPoint x="167" y="-128" as="sourcePoint" />
            <mxPoint x="241" y="-128" as="targetPoint" />
          </mxGeometry>
        </mxCell>
        <mxCell id="SoGWiR2uLx1Ju7XlsU4c-5" value="添加子订单" style="text;html=1;align=center;verticalAlign=middle;resizable=0;points=[];autosize=1;" vertex="1" parent="1">
          <mxGeometry x="163" y="-151" width="70" height="18" as="geometry" />
        </mxCell>
        <mxCell id="SoGWiR2uLx1Ju7XlsU4c-6" value="" style="endArrow=classic;html=1;dashed=1;" edge="1" parent="1">
          <mxGeometry width="50" height="50" relative="1" as="geometry">
            <mxPoint x="242.00000000000023" y="-77.83" as="sourcePoint" />
            <mxPoint x="167" y="-78" as="targetPoint" />
          </mxGeometry>
        </mxCell>
        <mxCell id="SoGWiR2uLx1Ju7XlsU4c-7" value="&lt;font style=&quot;font-size: 7px&quot;&gt;选择商品和数量&lt;br style=&quot;font-size: 7px&quot;&gt;添加子订单&lt;/font&gt;" style="text;html=1;align=center;verticalAlign=middle;resizable=0;points=[];autosize=1;" vertex="1" parent="1">
          <mxGeometry x="155" y="-111" width="94" height="32" as="geometry" />
        </mxCell>
        <mxCell id="SoGWiR2uLx1Ju7XlsU4c-9" value="" style="html=1;points=[];perimeter=orthogonalPerimeter;rounded=0;sketch=0;fillColor=#A8DADC;strokeColor=#457B9D;fontColor=#1D3557;" vertex="1" parent="1">
          <mxGeometry x="149" y="-146" width="10" height="75" as="geometry" />
        </mxCell>
        <mxCell id="SoGWiR2uLx1Ju7XlsU4c-16" value="根据订单区域获取商品列表" style="html=1;verticalAlign=bottom;endArrow=block;strokeColor=#457B9D;fontColor=#1D3557;labelBackgroundColor=#F1FAEE;exitX=1;exitY=0;exitDx=0;exitDy=0;" edge="1" parent="1">
          <mxGeometry relative="1" as="geometry">
            <mxPoint x="582" y="64" as="targetPoint" />
            <mxPoint x="386" y="64" as="sourcePoint" />
          </mxGeometry>
        </mxCell>
        <mxCell id="SoGWiR2uLx1Ju7XlsU4c-17" value="返回符合条件的商品列表" style="html=1;verticalAlign=bottom;endArrow=open;dashed=1;endSize=8;strokeColor=#457B9D;fontColor=#1D3557;labelBackgroundColor=#F1FAEE;entryX=1;entryY=0.95;entryDx=0;entryDy=0;" edge="1" parent="1">
          <mxGeometry relative="1" as="geometry">
            <mxPoint x="583.0000000000002" y="135" as="sourcePoint" />
            <mxPoint x="386" y="135.25" as="targetPoint" />
          </mxGeometry>
        </mxCell>
        <mxCell id="SoGWiR2uLx1Ju7XlsU4c-18" value="" style="html=1;points=[];perimeter=orthogonalPerimeter;rounded=0;sketch=0;fillColor=#A8DADC;strokeColor=#457B9D;fontColor=#1D3557;" vertex="1" parent="1">
          <mxGeometry x="588" y="64" width="10" height="85" as="geometry" />
        </mxCell>
        <mxCell id="SoGWiR2uLx1Ju7XlsU4c-19" value="合同中心" style="text;html=1;align=center;verticalAlign=middle;resizable=0;points=[];autosize=1;fontColor=#1D3557;" vertex="1" parent="1">
          <mxGeometry x="592" y="84" width="58" height="18" as="geometry" />
        </mxCell>
        <mxCell id="SoGWiR2uLx1Ju7XlsU4c-20" value="销售" style="shape=umlActor;verticalLabelPosition=bottom;verticalAlign=top;html=1;" vertex="1" parent="1">
          <mxGeometry x="-69" y="294" width="30" height="60" as="geometry" />
        </mxCell>
        <mxCell id="SoGWiR2uLx1Ju7XlsU4c-21" value="" style="html=1;points=[];perimeter=orthogonalPerimeter;fillColor=#b1ddf0;strokeColor=#10739e;" vertex="1" parent="1">
          <mxGeometry x="-59" y="383" width="10" height="1005" as="geometry" />
        </mxCell>
        <mxCell id="SoGWiR2uLx1Ju7XlsU4c-22" value="鹊桥" style="shape=umlLifeline;perimeter=lifelinePerimeter;whiteSpace=wrap;html=1;container=1;collapsible=0;recursiveResize=0;outlineConnect=0;fillColor=#b1ddf0;strokeColor=#10739e;" vertex="1" parent="1">
          <mxGeometry x="101" y="334" width="72" height="1066" as="geometry" />
        </mxCell>
        <mxCell id="SoGWiR2uLx1Ju7XlsU4c-39" value="" style="html=1;points=[];perimeter=orthogonalPerimeter;fillColor=#b1ddf0;strokeColor=#10739e;" vertex="1" parent="SoGWiR2uLx1Ju7XlsU4c-22">
          <mxGeometry x="30" y="304.5" width="11" height="115" as="geometry" />
        </mxCell>
        <mxCell id="SoGWiR2uLx1Ju7XlsU4c-49" value="" style="html=1;points=[];perimeter=orthogonalPerimeter;fillColor=#b1ddf0;strokeColor=#10739e;" vertex="1" parent="SoGWiR2uLx1Ju7XlsU4c-22">
          <mxGeometry x="31" y="454" width="10" height="112" as="geometry" />
        </mxCell>
        <mxCell id="SoGWiR2uLx1Ju7XlsU4c-50" value="点击关联线索" style="html=1;verticalAlign=bottom;endArrow=block;entryX=0;entryY=0;" edge="1" target="SoGWiR2uLx1Ju7XlsU4c-49" parent="SoGWiR2uLx1Ju7XlsU4c-22">
          <mxGeometry relative="1" as="geometry">
            <mxPoint x="-147" y="454" as="sourcePoint" />
          </mxGeometry>
        </mxCell>
        <mxCell id="SoGWiR2uLx1Ju7XlsU4c-61" value="" style="html=1;points=[];perimeter=orthogonalPerimeter;fillColor=#b1ddf0;strokeColor=#10739e;" vertex="1" parent="SoGWiR2uLx1Ju7XlsU4c-22">
          <mxGeometry x="31" y="640" width="10" height="172" as="geometry" />
        </mxCell>
        <mxCell id="SoGWiR2uLx1Ju7XlsU4c-62" value="点击创建合同加载弹窗信息" style="html=1;verticalAlign=bottom;endArrow=block;entryX=0;entryY=0;" edge="1" target="SoGWiR2uLx1Ju7XlsU4c-61" parent="SoGWiR2uLx1Ju7XlsU4c-22">
          <mxGeometry relative="1" as="geometry">
            <mxPoint x="-147" y="640" as="sourcePoint" />
          </mxGeometry>
        </mxCell>
        <mxCell id="SoGWiR2uLx1Ju7XlsU4c-71" value="" style="html=1;points=[];perimeter=orthogonalPerimeter;fillColor=#b1ddf0;strokeColor=#10739e;" vertex="1" parent="SoGWiR2uLx1Ju7XlsU4c-22">
          <mxGeometry x="31" y="930" width="10" height="80" as="geometry" />
        </mxCell>
        <mxCell id="SoGWiR2uLx1Ju7XlsU4c-23" value="crm" style="shape=umlLifeline;perimeter=lifelinePerimeter;whiteSpace=wrap;html=1;container=1;collapsible=0;recursiveResize=0;outlineConnect=0;fillColor=#b1ddf0;strokeColor=#10739e;" vertex="1" parent="1">
          <mxGeometry x="257" y="334" width="72" height="1064" as="geometry" />
        </mxCell>
        <mxCell id="SoGWiR2uLx1Ju7XlsU4c-27" value="" style="html=1;points=[];perimeter=orthogonalPerimeter;fillColor=#b1ddf0;strokeColor=#10739e;" vertex="1" parent="SoGWiR2uLx1Ju7XlsU4c-23">
          <mxGeometry x="31" y="81" width="10" height="80" as="geometry" />
        </mxCell>
        <mxCell id="SoGWiR2uLx1Ju7XlsU4c-24" value="商品" style="shape=umlLifeline;perimeter=lifelinePerimeter;whiteSpace=wrap;html=1;container=1;collapsible=0;recursiveResize=0;outlineConnect=0;fillColor=#b1ddf0;strokeColor=#10739e;" vertex="1" parent="1">
          <mxGeometry x="384" y="334" width="72" height="1070" as="geometry" />
        </mxCell>
        <mxCell id="SoGWiR2uLx1Ju7XlsU4c-35" value="获取商品列表" style="html=1;verticalAlign=bottom;endArrow=block;entryX=0;entryY=0;" edge="1" target="SoGWiR2uLx1Ju7XlsU4c-34" parent="SoGWiR2uLx1Ju7XlsU4c-24">
          <mxGeometry relative="1" as="geometry">
            <mxPoint x="-427" y="230" as="sourcePoint" />
          </mxGeometry>
        </mxCell>
        <mxCell id="SoGWiR2uLx1Ju7XlsU4c-34" value="" style="html=1;points=[];perimeter=orthogonalPerimeter;fillColor=#b1ddf0;strokeColor=#10739e;" vertex="1" parent="SoGWiR2uLx1Ju7XlsU4c-24">
          <mxGeometry x="31" y="230" width="10" height="31" as="geometry" />
        </mxCell>
        <mxCell id="SoGWiR2uLx1Ju7XlsU4c-36" value="返回商品列表" style="html=1;verticalAlign=bottom;endArrow=open;dashed=1;endSize=8;exitX=0;exitY=0.95;" edge="1" parent="SoGWiR2uLx1Ju7XlsU4c-24">
          <mxGeometry relative="1" as="geometry">
            <mxPoint x="-424" y="263" as="targetPoint" />
            <mxPoint x="31" y="263" as="sourcePoint" />
          </mxGeometry>
        </mxCell>
        <mxCell id="SoGWiR2uLx1Ju7XlsU4c-42" value="" style="html=1;points=[];perimeter=orthogonalPerimeter;fillColor=#b1ddf0;strokeColor=#10739e;" vertex="1" parent="SoGWiR2uLx1Ju7XlsU4c-24">
          <mxGeometry x="30" y="339" width="10" height="46" as="geometry" />
        </mxCell>
        <mxCell id="SoGWiR2uLx1Ju7XlsU4c-43" value="校验商品报价" style="html=1;verticalAlign=bottom;endArrow=block;entryX=0;entryY=0;" edge="1" target="SoGWiR2uLx1Ju7XlsU4c-42" parent="SoGWiR2uLx1Ju7XlsU4c-24">
          <mxGeometry relative="1" as="geometry">
            <mxPoint x="-232" y="339" as="sourcePoint" />
          </mxGeometry>
        </mxCell>
        <mxCell id="SoGWiR2uLx1Ju7XlsU4c-25" value="合同" style="shape=umlLifeline;perimeter=lifelinePerimeter;whiteSpace=wrap;html=1;container=1;collapsible=0;recursiveResize=0;outlineConnect=0;fillColor=#b1ddf0;strokeColor=#10739e;" vertex="1" parent="1">
          <mxGeometry x="501" y="334" width="72" height="1071" as="geometry" />
        </mxCell>
        <mxCell id="SoGWiR2uLx1Ju7XlsU4c-73" value="返回合同信息" style="html=1;verticalAlign=bottom;endArrow=open;dashed=1;endSize=8;exitX=0;exitY=0.95;" edge="1" source="SoGWiR2uLx1Ju7XlsU4c-71" parent="SoGWiR2uLx1Ju7XlsU4c-25">
          <mxGeometry relative="1" as="geometry">
            <mxPoint x="-546" y="1005" as="targetPoint" />
          </mxGeometry>
        </mxCell>
        <mxCell id="SoGWiR2uLx1Ju7XlsU4c-75" value="" style="html=1;points=[];perimeter=orthogonalPerimeter;fillColor=#b1ddf0;strokeColor=#10739e;" vertex="1" parent="SoGWiR2uLx1Ju7XlsU4c-25">
          <mxGeometry x="29" y="954" width="10" height="46" as="geometry" />
        </mxCell>
        <mxCell id="SoGWiR2uLx1Ju7XlsU4c-28" value="填写客户信息保存" style="html=1;verticalAlign=bottom;endArrow=block;entryX=0;entryY=0;" edge="1" target="SoGWiR2uLx1Ju7XlsU4c-27" parent="1" source="SoGWiR2uLx1Ju7XlsU4c-21">
          <mxGeometry relative="1" as="geometry">
            <mxPoint x="211" y="412" as="sourcePoint" />
          </mxGeometry>
        </mxCell>
        <mxCell id="SoGWiR2uLx1Ju7XlsU4c-29" value="返回客户保存接口" style="html=1;verticalAlign=bottom;endArrow=open;dashed=1;endSize=8;exitX=0;exitY=0.95;" edge="1" source="SoGWiR2uLx1Ju7XlsU4c-27" parent="1" target="SoGWiR2uLx1Ju7XlsU4c-21">
          <mxGeometry relative="1" as="geometry">
            <mxPoint x="211" y="488" as="targetPoint" />
          </mxGeometry>
        </mxCell>
        <mxCell id="SoGWiR2uLx1Ju7XlsU4c-31" value="绑定客户" style="text;html=1;align=center;verticalAlign=middle;resizable=0;points=[];autosize=1;" vertex="1" parent="1">
          <mxGeometry x="-136" y="442" width="58" height="18" as="geometry" />
        </mxCell>
        <mxCell id="SoGWiR2uLx1Ju7XlsU4c-33" value="编辑子订单" style="text;html=1;align=center;verticalAlign=middle;resizable=0;points=[];autosize=1;" vertex="1" parent="1">
          <mxGeometry x="-142" y="670" width="70" height="18" as="geometry" />
        </mxCell>
        <mxCell id="SoGWiR2uLx1Ju7XlsU4c-40" value="点击创建子订单按钮" style="edgeStyle=orthogonalEdgeStyle;html=1;align=left;spacingLeft=2;endArrow=block;rounded=0;entryX=0.1;entryY=0.33;entryDx=0;entryDy=0;entryPerimeter=0;exitX=0.1;exitY=0.33;exitDx=0;exitDy=0;exitPerimeter=0;dashed=1;" edge="1" parent="1">
          <mxGeometry relative="1" as="geometry">
            <mxPoint x="-45" y="525.8399999999999" as="sourcePoint" />
            <Array as="points">
              <mxPoint x="-20" y="526" />
              <mxPoint x="-20" y="551" />
            </Array>
            <mxPoint x="-45" y="551" as="targetPoint" />
          </mxGeometry>
        </mxCell>
        <mxCell id="SoGWiR2uLx1Ju7XlsU4c-41" value="选择商品" style="edgeStyle=orthogonalEdgeStyle;html=1;align=left;spacingLeft=2;endArrow=block;rounded=0;entryX=0.1;entryY=0.33;entryDx=0;entryDy=0;entryPerimeter=0;exitX=0.1;exitY=0.33;exitDx=0;exitDy=0;exitPerimeter=0;dashed=1;" edge="1" parent="1">
          <mxGeometry relative="1" as="geometry">
            <mxPoint x="-46" y="607.8399999999999" as="sourcePoint" />
            <Array as="points">
              <mxPoint x="-21" y="608" />
              <mxPoint x="-21" y="633" />
            </Array>
            <mxPoint x="-46" y="633" as="targetPoint" />
          </mxGeometry>
        </mxCell>
        <mxCell id="SoGWiR2uLx1Ju7XlsU4c-44" value="返回校验结果" style="html=1;verticalAlign=bottom;endArrow=open;dashed=1;endSize=8;exitX=0;exitY=0.95;" edge="1" source="SoGWiR2uLx1Ju7XlsU4c-42" parent="1" target="SoGWiR2uLx1Ju7XlsU4c-39">
          <mxGeometry relative="1" as="geometry">
            <mxPoint x="149" y="751" as="targetPoint" />
          </mxGeometry>
        </mxCell>
        <mxCell id="SoGWiR2uLx1Ju7XlsU4c-45" value="创建子订单" style="html=1;verticalAlign=bottom;endArrow=block;" edge="1" parent="1">
          <mxGeometry relative="1" as="geometry">
            <mxPoint x="-47" y="652" as="sourcePoint" />
            <mxPoint x="126" y="652" as="targetPoint" />
          </mxGeometry>
        </mxCell>
        <mxCell id="SoGWiR2uLx1Ju7XlsU4c-47" value="返回创建结果" style="html=1;verticalAlign=bottom;endArrow=block;" edge="1" parent="1">
          <mxGeometry relative="1" as="geometry">
            <mxPoint x="126" y="734" as="sourcePoint" />
            <mxPoint x="-47" y="734" as="targetPoint" />
          </mxGeometry>
        </mxCell>
        <mxCell id="SoGWiR2uLx1Ju7XlsU4c-52" value="关联线索" style="text;html=1;align=center;verticalAlign=middle;resizable=0;points=[];autosize=1;" vertex="1" parent="1">
          <mxGeometry x="-132" y="815" width="58" height="18" as="geometry" />
        </mxCell>
        <mxCell id="SoGWiR2uLx1Ju7XlsU4c-51" value="返回关联线索列表" style="html=1;verticalAlign=bottom;endArrow=open;dashed=1;endSize=8;exitX=0;exitY=0.95;" edge="1" source="SoGWiR2uLx1Ju7XlsU4c-49" parent="1" target="SoGWiR2uLx1Ju7XlsU4c-21">
          <mxGeometry relative="1" as="geometry">
            <mxPoint x="-50" y="898" as="targetPoint" />
          </mxGeometry>
        </mxCell>
        <mxCell id="SoGWiR2uLx1Ju7XlsU4c-54" value="获取子订单商品类目id" style="edgeStyle=orthogonalEdgeStyle;html=1;align=left;spacingLeft=2;endArrow=block;rounded=0;entryX=0.1;entryY=0.33;entryDx=0;entryDy=0;entryPerimeter=0;exitX=0.1;exitY=0.33;exitDx=0;exitDy=0;exitPerimeter=0;" edge="1" parent="1">
          <mxGeometry relative="1" as="geometry">
            <mxPoint x="150" y="798.8399999999999" as="sourcePoint" />
            <Array as="points">
              <mxPoint x="175" y="799" />
              <mxPoint x="175" y="824" />
            </Array>
            <mxPoint x="150" y="824" as="targetPoint" />
          </mxGeometry>
        </mxCell>
        <mxCell id="SoGWiR2uLx1Ju7XlsU4c-55" value="通过手机号获取商机线索" style="edgeStyle=orthogonalEdgeStyle;html=1;align=left;spacingLeft=2;endArrow=block;rounded=0;entryX=0.1;entryY=0.33;entryDx=0;entryDy=0;entryPerimeter=0;exitX=0.1;exitY=0.33;exitDx=0;exitDy=0;exitPerimeter=0;" edge="1" parent="1">
          <mxGeometry relative="1" as="geometry">
            <mxPoint x="149" y="832.8399999999999" as="sourcePoint" />
            <Array as="points">
              <mxPoint x="174" y="833" />
              <mxPoint x="174" y="858" />
            </Array>
            <mxPoint x="149" y="858" as="targetPoint" />
          </mxGeometry>
        </mxCell>
        <mxCell id="SoGWiR2uLx1Ju7XlsU4c-56" value="商品类目转化商机/新增" style="edgeStyle=orthogonalEdgeStyle;html=1;align=left;spacingLeft=2;endArrow=block;rounded=0;entryX=0.1;entryY=0.33;entryDx=0;entryDy=0;entryPerimeter=0;exitX=0.1;exitY=0.33;exitDx=0;exitDy=0;exitPerimeter=0;" edge="1" parent="1">
          <mxGeometry relative="1" as="geometry">
            <mxPoint x="149" y="866.8399999999999" as="sourcePoint" />
            <Array as="points">
              <mxPoint x="174" y="867" />
              <mxPoint x="174" y="892" />
            </Array>
            <mxPoint x="149" y="892" as="targetPoint" />
          </mxGeometry>
        </mxCell>
        <mxCell id="SoGWiR2uLx1Ju7XlsU4c-57" value="创建合同" style="text;html=1;align=center;verticalAlign=middle;resizable=0;points=[];autosize=1;" vertex="1" parent="1">
          <mxGeometry x="-165" y="1107" width="58" height="18" as="geometry" />
        </mxCell>
        <mxCell id="SoGWiR2uLx1Ju7XlsU4c-63" value="返回页面信息" style="html=1;verticalAlign=bottom;endArrow=open;dashed=1;endSize=8;exitX=0;exitY=0.95;" edge="1" source="SoGWiR2uLx1Ju7XlsU4c-61" parent="1" target="SoGWiR2uLx1Ju7XlsU4c-21">
          <mxGeometry relative="1" as="geometry">
            <mxPoint x="62" y="1050" as="targetPoint" />
          </mxGeometry>
        </mxCell>
        <mxCell id="SoGWiR2uLx1Ju7XlsU4c-64" value="获取主订单信息" style="edgeStyle=orthogonalEdgeStyle;html=1;align=left;spacingLeft=2;endArrow=block;rounded=0;entryX=0.1;entryY=0.33;entryDx=0;entryDy=0;entryPerimeter=0;exitX=0.1;exitY=0.33;exitDx=0;exitDy=0;exitPerimeter=0;" edge="1" parent="1">
          <mxGeometry relative="1" as="geometry">
            <mxPoint x="155" y="1021.8399999999999" as="sourcePoint" />
            <Array as="points">
              <mxPoint x="180" y="1022" />
              <mxPoint x="180" y="1047" />
            </Array>
            <mxPoint x="155" y="1047" as="targetPoint" />
          </mxGeometry>
        </mxCell>
        <mxCell id="SoGWiR2uLx1Ju7XlsU4c-65" value="获取客户信息" style="edgeStyle=orthogonalEdgeStyle;html=1;align=left;spacingLeft=2;endArrow=block;rounded=0;entryX=0.1;entryY=0.33;entryDx=0;entryDy=0;entryPerimeter=0;exitX=0.1;exitY=0.33;exitDx=0;exitDy=0;exitPerimeter=0;" edge="1" parent="1">
          <mxGeometry relative="1" as="geometry">
            <mxPoint x="154" y="1055.84" as="sourcePoint" />
            <Array as="points">
              <mxPoint x="179" y="1056" />
              <mxPoint x="179" y="1081" />
            </Array>
            <mxPoint x="154" y="1081" as="targetPoint" />
          </mxGeometry>
        </mxCell>
        <mxCell id="SoGWiR2uLx1Ju7XlsU4c-66" value="选择签署类型，框架协议不可选，其他（默认电签/纸质）" style="edgeStyle=orthogonalEdgeStyle;html=1;align=left;spacingLeft=2;endArrow=block;rounded=0;entryX=0.1;entryY=0.33;entryDx=0;entryDy=0;entryPerimeter=0;exitX=0.1;exitY=0.33;exitDx=0;exitDy=0;exitPerimeter=0;" edge="1" parent="1">
          <mxGeometry relative="1" as="geometry">
            <mxPoint x="-38" y="1188.04" as="sourcePoint" />
            <Array as="points">
              <mxPoint x="-13" y="1188.2" />
              <mxPoint x="-13" y="1213.2" />
            </Array>
            <mxPoint x="-38" y="1213.2" as="targetPoint" />
          </mxGeometry>
        </mxCell>
        <mxCell id="SoGWiR2uLx1Ju7XlsU4c-68" value="获取乙方主体信息" style="edgeStyle=orthogonalEdgeStyle;html=1;align=left;spacingLeft=2;endArrow=block;rounded=0;entryX=0.1;entryY=0.33;entryDx=0;entryDy=0;entryPerimeter=0;exitX=0.1;exitY=0.33;exitDx=0;exitDy=0;exitPerimeter=0;" edge="1" parent="1">
          <mxGeometry relative="1" as="geometry">
            <mxPoint x="155" y="1095.0400000000002" as="sourcePoint" />
            <Array as="points">
              <mxPoint x="180" y="1095.2" />
              <mxPoint x="180" y="1120.2" />
            </Array>
            <mxPoint x="155" y="1120.2" as="targetPoint" />
          </mxGeometry>
        </mxCell>
        <mxCell id="SoGWiR2uLx1Ju7XlsU4c-69" value="补全甲方乙方主体信息" style="edgeStyle=orthogonalEdgeStyle;html=1;align=left;spacingLeft=2;endArrow=block;rounded=0;entryX=0.1;entryY=0.33;entryDx=0;entryDy=0;entryPerimeter=0;exitX=0.1;exitY=0.33;exitDx=0;exitDy=0;exitPerimeter=0;" edge="1" parent="1">
          <mxGeometry relative="1" as="geometry">
            <mxPoint x="-35" y="1147.04" as="sourcePoint" />
            <Array as="points">
              <mxPoint x="-10" y="1147.2" />
              <mxPoint x="-10" y="1172.2" />
            </Array>
            <mxPoint x="-35" y="1172.1999999999998" as="targetPoint" />
          </mxGeometry>
        </mxCell>
        <mxCell id="SoGWiR2uLx1Ju7XlsU4c-72" value="" style="html=1;verticalAlign=bottom;endArrow=block;entryX=0;entryY=0;" edge="1" target="SoGWiR2uLx1Ju7XlsU4c-71" parent="1">
          <mxGeometry relative="1" as="geometry">
            <mxPoint x="-42" y="1263" as="sourcePoint" />
          </mxGeometry>
        </mxCell>
        <mxCell id="SoGWiR2uLx1Ju7XlsU4c-74" value="&lt;span style=&quot;background-color: rgb(255 , 255 , 255)&quot;&gt;点击确认创建合同&lt;/span&gt;" style="text;html=1;align=center;verticalAlign=middle;resizable=0;points=[];autosize=1;" vertex="1" parent="1">
          <mxGeometry x="-9" y="1247" width="106" height="18" as="geometry" />
        </mxCell>
        <mxCell id="SoGWiR2uLx1Ju7XlsU4c-77" value="返回结果" style="html=1;verticalAlign=bottom;endArrow=open;dashed=1;endSize=8;exitX=0;exitY=0.95;" edge="1" source="SoGWiR2uLx1Ju7XlsU4c-75" parent="1">
          <mxGeometry relative="1" as="geometry">
            <mxPoint x="142" y="1331.6999999999998" as="targetPoint" />
          </mxGeometry>
        </mxCell>
        <mxCell id="SoGWiR2uLx1Ju7XlsU4c-76" value="创建合同" style="html=1;verticalAlign=bottom;endArrow=block;entryX=0;entryY=0;" edge="1" target="SoGWiR2uLx1Ju7XlsU4c-75" parent="1">
          <mxGeometry relative="1" as="geometry">
            <mxPoint x="150" y="1288" as="sourcePoint" />
          </mxGeometry>
        </mxCell>
        <mxCell id="SoGWiR2uLx1Ju7XlsU4c-81" value="&amp;nbsp;校验签署类型（非框架协议默认电签）" style="edgeStyle=orthogonalEdgeStyle;html=1;align=left;spacingLeft=2;endArrow=block;rounded=0;entryX=0.1;entryY=0.33;entryDx=0;entryDy=0;entryPerimeter=0;exitX=0.1;exitY=0.33;exitDx=0;exitDy=0;exitPerimeter=0;" edge="1" parent="1">
          <mxGeometry relative="1" as="geometry">
            <mxPoint x="153" y="989.8400000000001" as="sourcePoint" />
            <Array as="points">
              <mxPoint x="178" y="990" />
              <mxPoint x="178" y="1015" />
            </Array>
            <mxPoint x="153" y="1015" as="targetPoint" />
          </mxGeometry>
        </mxCell>
      </root>
    </mxGraphModel>
  </diagram>
</mxfile>
